<svg width="47" height="18" viewBox="0 0 47 18" fill="none" xmlns="http://www.w3.org/2000/svg">
<path d="M26.3232 3.50387L27.025 0.0534238H20.6278L19.8172 5.83265C21.5036 4.5828 23.7067 3.51455 26.3232 3.50387Z" fill="black"/>
<path d="M38.775 12.3062V0H32.2472V5.37863C35.0433 7.21602 36.6317 9.74243 36.6317 9.74243C36.6317 9.74243 35.0378 12.2688 32.2472 14.1062V17.9519H47V12.3062H38.775Z" fill="black"/>
<path d="M16.0855 9.7371C16.0855 9.7371 16.8797 8.48191 18.3213 7.09853L16.9722 0.0534238H10.1561L8.35555 10.3086H8.09444L6.52778 0.0534238H0L3.78611 18H11.75L13.4472 8.25758H13.7083L15.5361 18H23.3694L23.8481 15.6392C18.9904 14.3573 16.0855 9.7371 16.0855 9.7371Z" fill="black"/>
<path d="M29.3696 9.41662C28.2381 9.41662 27.3187 8.51395 27.3187 7.40298C27.3187 6.85283 27.5418 6.36143 27.9062 5.99823C27.4275 5.80594 26.9053 5.69912 26.3559 5.69912C24.0821 5.69912 22.238 7.5098 22.238 9.74244C22.238 11.9751 24.0821 13.7858 26.3559 13.7858C28.6297 13.7858 30.4738 11.9751 30.4738 9.74244C30.4738 9.53413 30.4521 9.32582 30.4194 9.12286C30.1148 9.30446 29.7558 9.41662 29.3696 9.41662Z" fill="black"/>
</svg>
