<svg width="15" height="18" viewBox="0 0 15 18" fill="none" xmlns="http://www.w3.org/2000/svg">
  <path d="M7.50732 11.6382C7.88818 11.6382 8.1958 11.3306 8.1958 10.9644V3.59619L8.13721 2.51221L8.59131 3.04688L9.60938 4.13818C9.73389 4.27002 9.90234 4.33594 10.0708 4.33594C10.4077 4.33594 10.686 4.09424 10.686 3.75C10.686 3.56689 10.6128 3.43506 10.4883 3.31055L8.02734 0.944824C7.85156 0.769043 7.69043 0.710449 7.50732 0.710449C7.33154 0.710449 7.16309 0.769043 6.9873 0.944824L4.52637 3.31055C4.40186 3.43506 4.33594 3.56689 4.33594 3.75C4.33594 4.09424 4.60693 4.33594 4.94385 4.33594C5.1123 4.33594 5.28809 4.27002 5.40527 4.13818L6.42334 3.04688L6.87744 2.50488L6.82617 3.59619V10.9644C6.82617 11.3306 7.13379 11.6382 7.50732 11.6382ZM3.28125 17.4902H11.7188C13.3081 17.4902 14.1284 16.6699 14.1284 15.1025V7.90283C14.1284 6.33545 13.3081 5.51514 11.7188 5.51514H9.74121V6.97266H11.6235C12.29 6.97266 12.6709 7.32422 12.6709 8.02734V14.9707C12.6709 15.6738 12.29 16.0254 11.6235 16.0254H3.37646C2.70264 16.0254 2.3291 15.6738 2.3291 14.9707V8.02734C2.3291 7.32422 2.70264 6.97266 3.37646 6.97266H5.28076V5.51514H3.28125C1.69922 5.51514 0.871582 6.32812 0.871582 7.90283V15.1025C0.871582 16.6699 1.69922 17.4902 3.28125 17.4902Z" fill="#3C3C43" fill-opacity="0.3"/>
</svg>
